<svg width="39" height="58" viewBox="0 0 39 58" fill="none" xmlns="http://www.w3.org/2000/svg">
<path d="M27.55 12.9999C26.7485 11.7978 25.6163 10.8532 24.29 10.2799C22.7143 9.59223 21.0091 9.25119 19.29 9.2799C16.9564 9.25952 14.6587 9.85635 12.63 11.0099C10.5495 12.1877 8.78845 13.8561 7.5 15.8699L0.5 10.4299C2.02542 8.4941 3.77417 6.74532 5.70996 5.2199C7.60259 3.78762 9.73144 2.69783 12 1.9999C14.5897 1.1985 17.2895 0.810411 20 0.849905C22.3813 0.838314 24.7476 1.22706 27 1.9999C29.1874 2.7324 31.2212 3.86119 33 5.32989C34.7387 6.74858 36.1508 8.52569 37.14 10.5399C38.164 12.6758 38.6742 15.0216 38.63 17.3899C38.6869 20.2567 37.8747 23.0736 36.3 25.4699C34.7459 27.7931 32.6575 29.71 30.21 31.0599C27.7764 32.4459 25.0968 33.3459 22.3199 33.7099L21.86 41.0599H14L12.47 27.4299H14.84C17.494 27.5151 20.1312 26.9774 22.54 25.8599C24.4026 24.9857 26.0027 23.6373 27.1801 21.9499C28.1201 20.6104 28.6483 19.0255 28.7 17.3899C28.7566 15.8453 28.3567 14.3183 27.55 12.9999ZM13.55 47.6199C14.7964 46.5311 16.3952 45.9312 18.05 45.9312C19.7049 45.9312 21.3037 46.5311 22.55 47.6199C23.111 48.1244 23.5594 48.7413 23.8665 49.4304C24.1735 50.1195 24.3322 50.8655 24.3322 51.6199C24.3322 52.3743 24.1735 53.1203 23.8665 53.8094C23.5594 54.4985 23.111 55.1154 22.55 55.6199C21.3009 56.7027 19.7032 57.2989 18.05 57.2989C16.3969 57.2989 14.7992 56.7027 13.55 55.6199C12.9777 55.1224 12.5188 54.5078 12.2043 53.8178C11.8899 53.1277 11.7271 52.3782 11.7271 51.6199C11.7271 50.8616 11.8899 50.112 12.2043 49.422C12.5188 48.7319 12.9777 48.1174 13.55 47.6199Z" fill="#000105"/>
</svg>
